<svg xmlns="http://www.w3.org/2000/svg" width="20" height="20"><defs><clipPath id="a"><path data-name="Rectangle 20" transform="translate(323 1536)" fill="#e86556" d="M0 0h20v20H0z"/></clipPath></defs><g data-name="Mask Group 14" transform="translate(-323 -1536)" clip-path="url(#a)"><g data-name="vk (1)"><g data-name="Group 30"><path data-name="Path 5" d="M342.822 1550.473a8.917 8.917 0 00-1.986-2.3c-1.675-1.555-1.45-1.3.568-3.992 1.229-1.638 1.72-2.638 1.566-3.065-.146-.408-1.05-.3-1.05-.3l-3.005.018a.687.687 0 00-.389.069.846.846 0 00-.265.323 17.409 17.409 0 01-1.111 2.345c-1.339 2.274-1.875 2.394-2.094 2.253-.51-.324-.382-1.324-.382-2.024 0-2.2.334-3.123-.651-3.36a5.159 5.159 0 00-1.4-.14 6.492 6.492 0 00-2.5.255c-.343.168-.606.541-.445.563a1.348 1.348 0 01.888.446 2.9 2.9 0 01.3 1.361s.178 2.594-.414 2.916c-.406.221-.963-.23-2.156-2.294a19.239 19.239 0 01-1.077-2.228.888.888 0 00-.248-.334 1.246 1.246 0 00-.462-.185l-2.857.017s-.429.013-.586.2c-.14.166-.011.509-.011.509s2.238 5.234 4.77 7.873a6.865 6.865 0 004.962 2.26h1.2a1.008 1.008 0 00.545-.239.87.87 0 00.164-.525s-.024-1.6.721-1.84 1.676 1.55 2.675 2.236a1.892 1.892 0 001.329.405l2.671-.038s1.392-.087.73-1.185z" fill="#e86556"/></g></g></g></svg>